<svg width="32" height="36" viewBox="0 0 32 36" fill="none" xmlns="http://www.w3.org/2000/svg">
<path d="M15.2988 29.4307C16.284 28.321 17.2159 27.4603 18.105 26.5605C18.9977 25.6572 19.9011 24.7609 20.8009 23.8646C21.6759 22.9897 22.5508 22.1148 23.4257 21.2399C24.3256 20.3401 25.2218 19.4438 26.1217 18.544C27.0179 17.6477 27.9142 16.7515 28.7785 15.8872C28.7287 15.592 28.5544 15.5991 28.3979 15.5956C28.1063 15.5885 27.8111 15.5885 27.5194 15.5885C23.8383 15.5885 20.1572 15.5885 16.4725 15.5885C16.156 15.5885 15.8394 15.5707 15.4233 15.5565C15.5229 15.3751 15.562 15.2613 15.6367 15.1759C15.811 14.9803 15.9995 14.7989 16.1809 14.6175C20.7903 10.0118 25.3961 5.40244 30.0055 0.79667C30.2545 0.54771 30.5177 0.312979 30.8484 0C30.9196 0.234734 30.9907 0.369874 31.0014 0.512137C31.0227 0.771768 31.012 1.0314 31.012 1.29459C31.012 10.2216 31.012 19.1451 31.0085 28.0721C31.0085 28.4882 31.0654 28.915 30.9089 29.3524C30.5675 29.5303 30.2047 29.4627 29.8561 29.4627C27.1175 29.4698 24.3825 29.4662 21.6439 29.4662C19.8833 29.4662 18.1264 29.4662 16.3658 29.4662C16.0848 29.4627 15.8003 29.4449 15.2988 29.4307Z" fill="#FF6229"/>
<path d="M0.118568 6.70117C5.26857 6.70117 10.3403 6.70117 15.4014 6.70117C15.5188 6.91812 15.373 7.02482 15.2663 7.13507C15.0422 7.36981 14.811 7.59742 14.5798 7.8286C10.6675 11.7408 6.75169 15.6531 2.84295 19.5724C2.60466 19.8107 2.27389 19.9992 2.22054 20.3442C2.27745 20.426 2.29167 20.458 2.31657 20.4758C2.34147 20.4936 2.37703 20.5007 2.40904 20.5043C2.47306 20.5149 2.53708 20.5256 2.6011 20.5291C2.69713 20.5327 2.79671 20.5363 2.89274 20.5363C7.02555 20.5434 11.1619 20.5505 15.2947 20.5576C15.3267 20.5576 15.3552 20.5754 15.3908 20.586C15.5259 20.7674 15.3801 20.8777 15.2769 20.9915C15.1204 21.1587 14.9568 21.3187 14.7968 21.4788C10.1696 26.1059 5.54244 30.733 0.915256 35.3565C0.687631 35.5841 0.449337 35.7975 0.232383 36.0003C-0.0236949 35.9149 0.0154263 35.7335 0.00831307 35.5806C-0.00235683 35.353 0.00475839 35.1253 0.00475839 34.8977C0.00475839 25.9458 0.00475644 16.9939 0.00831307 8.042C0.00831307 7.62588 -0.0450373 7.20265 0.118568 6.70117Z" fill="#FF6229"/>
</svg>
